<mxfile host="app.diagrams.net" modified="2022-01-21T13:50:52.200Z" agent="5.0 (Macintosh; Intel Mac OS X 10_15_6) AppleWebKit/605.1.15 (KHTML, like Gecko) Version/15.2 Safari/605.1.15" etag="PbT0v946BJeHwuSW5E5s" version="16.4.3" type="github">
  <diagram id="6BfraHJxzuq5Ge9cIaoQ" name="Page-1">
    <mxGraphModel dx="696" dy="580" grid="1" gridSize="10" guides="1" tooltips="1" connect="1" arrows="1" fold="1" page="1" pageScale="1" pageWidth="827" pageHeight="1169" math="0" shadow="0">
      <root>
        <mxCell id="0" />
        <mxCell id="1" parent="0" />
        <mxCell id="TKWOm9ThN69RwbLfLjfW-1" value="Hello" style="rounded=0;whiteSpace=wrap;html=1;" vertex="1" parent="1">
          <mxGeometry x="320" y="250" width="120" height="60" as="geometry" />
        </mxCell>
      </root>
    </mxGraphModel>
  </diagram>
</mxfile>
